<?xml version="1.0" encoding="UTF-8" standalone="no"?>
<!-- Created with Inkscape (http://www.inkscape.org/) -->

<svg
   width="48"
   height="48"
   viewBox="0 0 48 48"
   version="1.1"
   id="svg1"
   xmlns="http://www.w3.org/2000/svg"
   xmlns:svg="http://www.w3.org/2000/svg">
  <defs
     id="defs1" />
  <g
     id="layer1">
    <ellipse
       style="fill:#ffffff;stroke-width:1.10507"
       id="path1"
       cx="24.029448"
       cy="23.734968"
       rx="22.674849"
       ry="22.380367" />
    <ellipse
       style="fill:#000000;stroke-width:1.05908"
       id="path2"
       cx="24.088345"
       cy="24.265032"
       rx="23.146013"
       ry="22.380367" />
    <path
       style="fill:#ffffff"
       d="M 2.5970329,18.900444 17.580763,3.8169516 c 0,0 19.519194,35.0152824 11.654415,37.8286014 C 23.698561,43.626063 2.8688498,25.15493 2.8688498,25.15493 c 0,0 6.7647581,-9.194788 7.6809602,-6.862637 0.916202,2.332151 13.202445,21.227095 16.700672,18.894945 3.498226,-2.332151 0.326379,-0.06293 0.326379,-0.06293 L 14.201195,11.844228 3.6655268,20.272654 Z"
       id="path3" />
    <path
       style="fill:#ffffff"
       d="M 18.552147,4.0638037 C 34.100613,27.739877 33.158282,37.811043 33.158282,37.811043 c 0,0 6.773006,-1.825767 10.660123,-7.244172 3.887116,-5.418405 -3.29816,-17.315337 -3.29816,-17.315337 0,0 -0.530061,-2.355828 -4.24049,-1.413497 -3.71043,0.942331 -7.538651,3.769325 -8.245399,1.884662 -0.706749,-1.884662 -0.530062,-1.177914 -0.530062,-1.177914 0,0 9.541105,-2.5914108 9.128835,-3.7693249 C 36.220859,7.597546 32.333742,2.4736196 18.552147,4.0638037 Z"
       id="path4" />
    <path
       style="fill:#ffffff"
       d="M 52.888344,4.8883436 52.534969,4.1815951"
       id="path5" />
    <ellipse
       style="fill:#ffffff"
       id="path6"
       cx="28.564417"
       cy="8.598773"
       rx="1.2957056"
       ry="0.88343561" />
    <path
       style="fill:#000000"
       id="path12"
       d="M 30.802455,13.546012 24.469887,12.694411 20.954796,18.030213 19.807845,11.744424 13.646973,10.050227 19.270687,7.0169963 18.978149,0.63412334 23.600746,5.0452731 29.58082,2.7946373 26.814029,8.5541085 Z"
       transform="translate(14.076074,13.781595)" />
    <ellipse
       style="fill:#000000"
       id="path13"
       cx="30.30184"
       cy="8.4515333"
       rx="4.0932517"
       ry="1.7374233" />
  </g>
</svg>
