<?xml version="1.0" encoding="UTF-8" standalone="no"?>
<!-- Created with Inkscape (http://www.inkscape.org/) -->

<svg
   width="512"
   height="512"
   viewBox="0 0 512 512"
   version="1.1"
   id="svg1"
   xmlns:xlink="http://www.w3.org/1999/xlink"
   xmlns="http://www.w3.org/2000/svg"
   xmlns:svg="http://www.w3.org/2000/svg">
  <defs
     id="defs1">
    <linearGradient
       id="linearGradient44">
      <stop
         style="stop-color:#000000;stop-opacity:1;"
         offset="0"
         id="stop45" />
      <stop
         style="stop-color:#000000;stop-opacity:0;"
         offset="1"
         id="stop46" />
    </linearGradient>
    <radialGradient
       xlink:href="#linearGradient44"
       id="radialGradient46"
       cx="253.50984"
       cy="286.78317"
       fx="253.50984"
       fy="286.78317"
       r="227.30968"
       gradientTransform="matrix(1,0,0,0.84568878,0,44.25386)"
       gradientUnits="userSpaceOnUse" />
    <radialGradient
       xlink:href="#linearGradient44"
       id="radialGradient2"
       gradientUnits="userSpaceOnUse"
       gradientTransform="matrix(1,0,0,0.84568878,0,44.25386)"
       cx="253.50984"
       cy="286.78317"
       fx="253.50984"
       fy="286.78317"
       r="227.30968" />
  </defs>
  <g
     id="layer2"
     style="display:inline;stroke:url(#radialGradient46)">
    <ellipse
       style="fill:#29fff9;fill-opacity:1;stroke:url(#radialGradient2);stroke-width:1.3831"
       id="path4"
       cx="253.50984"
       cy="286.78317"
       rx="226.61812"
       ry="191.54169" />
  </g>
  <g
     id="layer1"
     transform="matrix(1.2443094,0,0,1.2648913,-69.130759,-51.875869)"
     style="display:inline;fill:#29ffd7;fill-opacity:1">
    <path
       style="fill:#00caca;fill-opacity:0.824324;stroke-width:0.797093"
       d="m 205.00056,267.48906 c 18.09661,22.3968 45.58262,37.37818 74.34264,38.78004 14.38001,0.70092 28.93713,-1.92201 42.07811,-7.80338 13.14099,-5.88137 24.8342,-15.0303 33.52717,-26.50672 8.7885,-11.60255 14.43442,-25.43606 17.16575,-39.7328 4.09834,-21.45218 1.62713,-44.16413 -7.30649,-64.09358 -8.93361,-19.92944 -24.33532,-36.95482 -43.44202,-47.53435 -19.10669,-10.57952 -41.83056,-14.59526 -63.35016,-10.86709 -21.5196,3.72817 -41.66257,15.23796 -55.53937,32.10291 -14.40745,17.50987 -21.8151,40.46758 -21.10793,63.13187 0.70717,22.66429 9.38128,44.88568 23.6323,62.5231 z"
       id="path5"
       transform="matrix(1.6470976,0,0,1.3335949,-197.10325,-4.8614716)" />
    <path
       style="fill:#f2f2f2;fill-opacity:0.909774"
       d="m 65.522337,240.76682 c -3.331644,11.10548 -9.994931,33.31644 -9.624677,52.71418 0.370255,19.39774 7.773764,35.9816 14.659224,49.23424 6.88546,13.25263 13.252476,23.17333 20.656215,26.50494 7.403738,3.33162 15.843731,0.0741 20.730161,-6.66335 4.88642,-6.73743 6.21905,-16.95427 3.55367,-27.83776 -2.66538,-10.88348 -9.32853,-22.43295 -12.21595,-36.12987 -2.88742,-13.69692 -1.999,-29.54042 2.88751,-42.20077 4.8865,-12.66034 13.7707,-22.13682 19.02731,-31.53955 5.25662,-9.40274 6.88539,-18.73116 4.14596,-26.2089 -2.73942,-7.47775 -9.84679,-13.10442 -17.76878,-14.51108 -7.922,-1.40667 -16.658137,1.40666 -23.913775,9.69889 -7.255639,8.29223 -13.030374,22.06275 -22.136868,46.93903 z"
       id="path30"
       transform="matrix(0.80365864,0,0,0.79058177,44.490513,44.524033)" />
    <path
       style="fill:#f2f2f2;fill-opacity:0.909774"
       d="m 118.21022,165.22208 c -3.45521,3.14111 -8.06217,7.53865 -8.48094,11.30801 -0.41878,3.76936 3.35047,6.9104 7.22454,7.74802 3.87407,0.83761 7.85272,-0.62821 10.99385,-4.18818 3.14113,-3.55998 5.44457,-9.21386 5.02572,-13.19261 -0.41885,-3.97876 -3.55989,-6.28218 -6.28221,-6.49157 -2.72231,-0.20939 -5.02574,1.67523 -8.48096,4.81633 z"
       id="path31"
       transform="matrix(1.2149133,0,0,1.078884,-3.1876413,-10.195257)" />
  </g>
  <g
     id="layer4">
    <path
       style="fill:#eb7eca;fill-opacity:1"
       d="m 413.36933,326.67485 c 6.30315,-0.28558 12.27567,-3.54064 16.49885,-8.22849 4.22318,-4.68786 6.78941,-10.7083 8.00176,-16.90035 0.56874,-2.90486 0.84473,-5.9679 -0.0737,-8.78184 -0.4592,-1.40696 -1.22046,-2.72817 -2.28821,-3.75302 -1.06774,-1.02486 -2.45048,-1.74125 -3.92034,-1.91422 -1.70035,-0.2001 -3.43428,0.33222 -4.87786,1.25272 -1.44357,0.9205 -2.62035,2.20876 -3.6283,3.5927 -2.01589,2.76787 -3.44991,5.99992 -5.94292,8.34722 -2.68343,2.52659 -6.29375,3.75338 -9.63168,5.31628 -1.66897,0.78146 -3.30399,1.66921 -4.721,2.84743 -1.41701,1.17821 -2.61404,2.66652 -3.2375,4.40071 -0.6515,1.81217 -0.64445,3.83802 -0.0704,5.6762 0.57403,1.83818 1.70001,3.48676 3.14102,4.76422 2.88202,2.55492 6.90276,3.55476 10.75026,3.38044 z"
       id="path7"
       transform="matrix(-0.54250047,0,0,-0.70918894,656.41245,501.42595)" />
    <path
       style="fill:#eb7eca;fill-opacity:1"
       d="m 222.70429,356.20123 c -0.9712,-3.03621 -1.04431,-6.33843 -0.31813,-9.44237 0.72618,-3.10395 2.23917,-6.00716 4.28089,-8.45526 4.08345,-4.8962 10.17951,-7.86075 16.46599,-8.92257 6.28649,-1.06182 12.76658,-0.34056 18.95229,1.20355 6.18571,1.54411 12.13477,3.89471 18.10117,6.1418 6.17166,2.3244 12.59638,4.67797 17.25596,9.34494 2.32978,2.33348 4.15212,5.2364 4.89358,8.44939 0.74145,3.21299 0.33576,6.74106 -1.41825,9.53328 -1.02917,1.63834 -2.49081,2.98901 -4.15879,3.96942 -1.66798,0.98042 -3.53838,1.59652 -5.44995,1.8953 -3.82314,0.59754 -7.74448,-0.0639 -11.45122,-1.17456 -3.70673,-1.11068 -7.26445,-2.66474 -10.92699,-3.91345 -3.66254,-1.24871 -7.49425,-2.1982 -11.36029,-2.03315 -4.06045,0.17335 -7.95342,1.56116 -11.86049,2.68015 -3.90707,1.11898 -8.04691,1.98148 -12.0119,1.08917 -2.57122,-0.57865 -4.96495,-1.89422 -6.86991,-3.71552 -1.90496,-1.82129 -3.321,-4.13989 -4.12396,-6.65012 z"
       id="path8"
       transform="matrix(0.67780684,0,0,0.62777622,66.900113,131.3351)" />
    <path
       style="fill:#007899;fill-opacity:0.488722;stroke:none;stroke-opacity:1"
       d="m 249.20699,318.50519 c 6.35872,3.01833 11.88669,7.52691 18.02071,10.97909 3.067,1.72609 6.30589,3.19363 9.72808,4.01494 3.42219,0.82131 7.04357,0.97803 10.45406,0.10942 4.88303,-1.24365 9.12267,-4.5861 11.80582,-8.85124 2.68315,-4.26513 3.85846,-9.39299 3.69786,-14.42934 -0.1606,-5.03636 -1.61435,-9.98277 -3.84607,-14.50052 -2.23173,-4.51775 -5.22808,-8.62511 -8.54807,-12.41567 -10.23836,-11.68952 -24.00026,-20.59943 -39.26246,-23.52074 -7.63111,-1.46065 -15.56988,-1.41484 -23.13694,0.3478 -7.56706,1.76264 -14.75062,5.2574 -20.6696,10.29058 -3.88509,3.30367 -7.32251,7.4623 -8.44017,12.43814 -0.62029,2.76151 -0.49102,5.67262 0.25249,8.40354 0.7435,2.73091 2.09135,5.28275 3.83038,7.51579 3.47806,4.46608 8.43788,7.59205 13.67309,9.74504 10.47042,4.30598 22.21329,5.0184 32.44082,9.87317 z"
       id="path10"
       transform="translate(12.438138,17.32455)" />
    <path
       style="fill:#37faff;fill-opacity:1;stroke:none;stroke-opacity:1"
       id="path38"
       d="m 262.59632,309.39875 -23.32917,-6.61727 -16.08488,18.14705 -0.91572,-24.23221 -22.22937,-9.68989 22.76324,-8.35906 2.34637,-24.13572 14.98416,19.06603 23.67951,-5.22682 -13.50251,20.14252 z"
       transform="matrix(0.74387797,0,0,0.77298994,70.394666,81.963207)" />
    <path
       style="fill:#007899;fill-opacity:0.490196"
       d="m 249.20699,318.50519 c 6.4046,3.36927 11.74712,8.41751 17.72584,12.495 2.98936,2.03874 6.16492,3.84698 9.58915,5.01636 3.42422,1.16937 7.11677,1.68231 10.69003,1.11262 5.4586,-0.87028 10.36643,-4.29427 13.4617,-8.8739 3.09528,-4.57962 4.44083,-10.22666 4.22202,-15.74986 -0.2188,-5.52321 -1.94353,-10.92419 -4.54079,-15.80353 -2.59726,-4.87933 -6.05036,-9.26186 -9.83556,-13.29001 -10.58565,-11.26508 -24.22875,-20.02608 -39.39163,-23.03356 -7.58145,-1.50374 -15.47511,-1.55083 -23.02255,0.1152 -7.54744,1.66602 -14.73726,5.06388 -20.65482,10.036 -3.90734,3.28307 -7.35774,7.45073 -8.44017,12.43814 -0.59805,2.75556 -0.43813,5.65608 0.33688,8.3672 0.775,2.71112 2.15476,5.23423 3.9199,7.43311 3.53028,4.39777 8.51564,7.43511 13.75075,9.53197 10.47022,4.19372 22.20737,4.95409 32.18925,10.20526 z"
       id="path10-8"
       transform="matrix(0,-0.5613718,0.50471824,0,258.09905,411.90333)" />
    <path
       style="display:inline;fill:#37faff;fill-opacity:1;stroke:none;stroke-opacity:1"
       id="path39"
       d="m 430.01716,258.51288 -15.35197,-6.05833 -12.11981,11.20251 1.0178,-16.47271 -14.39946,-8.06487 15.981,-4.12236 3.22046,-16.18688 8.85901,13.92496 16.38981,-1.93918 -10.50584,12.72846 z"
       transform="matrix(-0.07597497,-0.63365489,-0.57772101,0.08662142,574.36549,512.83641)" />
  </g>
  <g
     id="layer5">
    <path
       style="fill:#000000;fill-opacity:0.503759"
       d="m 338.75418,363.59344 c -0.4072,1.70284 0.44422,3.07252 2.49877,6.16359 2.05454,3.09107 5.31202,7.90326 8.53267,12.41958 3.22066,4.51631 6.40417,8.73631 12.7714,8.44012 6.36724,-0.2962 15.91776,-5.10847 18.76813,-11.25358 2.85037,-6.14511 -0.99945,-13.62265 -0.55519,-14.28892 0.44427,-0.66627 5.18251,5.47864 10.47618,6.81126 5.29368,1.33263 11.14245,-2.14702 13.65968,-8.14407 2.51723,-5.99704 1.70285,-14.51107 -0.25915,-20.17489 -1.962,-5.66383 -5.07147,-8.47716 -7.07047,-8.77328 -1.99899,-0.29613 -2.88742,1.92493 -2.33212,5.47873 0.5553,3.5538 2.55424,8.44012 3.40566,11.91985 0.85142,3.47974 0.55528,5.55272 -0.44424,6.92241 -0.99951,1.36968 -2.70231,2.03599 -5.88593,1.07349 -3.18362,-0.9625 -7.84783,-3.55373 -11.43863,-4.47917 -3.59079,-0.92545 -6.10798,-0.1851 -7.5517,1.33267 -1.44372,1.51777 -1.81389,3.81286 -1.51774,6.18205 0.29616,2.36919 1.25862,4.81235 1.03649,7.21856 -0.22212,2.40621 -1.62879,4.77534 -3.47972,5.99694 -1.85094,1.2216 -4.14603,1.29564 -7.21858,-0.0556 -3.07255,-1.35119 -6.9223,-4.12745 -10.32805,-7.45916 -3.40575,-3.33171 -6.36709,-7.21847 -8.68078,-8.14394 -2.31369,-0.92548 -3.97948,1.11048 -4.38668,2.81332 z"
       id="path25" />
  </g>
  <g
     id="layer6"
     style="fill:#f2f2f2">
    <path
       style="fill:#29fff9;fill-opacity:1;stroke:none;stroke-opacity:1"
       d="m 62.813333,71.003483 c -19.992177,12.318007 -15.581299,34.809087 1.043181,49.046757 9.888267,8.46859 17.922493,-3.66274 26.764209,4.33114 16.213997,14.65924 -0.593771,-20.03878 4.220084,-45.976686 3.007602,-16.205497 -32.027474,-7.401211 -32.027474,-7.401211 z"
       id="path48" />
  </g>
  <path
     style="color:#000000;font-style:normal;font-variant:normal;font-weight:normal;font-stretch:normal;font-size:medium;line-height:normal;font-family:sans-serif;font-variant-ligatures:normal;font-variant-position:normal;font-variant-caps:normal;font-variant-numeric:normal;font-variant-alternates:normal;font-variant-east-asian:normal;font-feature-settings:normal;font-variation-settings:normal;text-indent:0;text-align:start;text-decoration-line:none;text-decoration-style:solid;text-decoration-color:#000000;letter-spacing:normal;word-spacing:normal;text-transform:none;writing-mode:lr-tb;direction:ltr;text-orientation:mixed;dominant-baseline:auto;baseline-shift:baseline;text-anchor:start;white-space:normal;shape-padding:0;shape-margin:0;inline-size:0;clip-rule:nonzero;display:inline;overflow:visible;visibility:visible;isolation:auto;mix-blend-mode:normal;color-interpolation:sRGB;color-interpolation-filters:linearRGB;solid-color:#000000;solid-opacity:1;vector-effect:none;fill:#ffffff;fill-opacity:1;fill-rule:nonzero;stroke:none;stroke-width:0.841118;stroke-linecap:butt;stroke-linejoin:miter;stroke-miterlimit:4;stroke-dasharray:none;stroke-dashoffset:0;stroke-opacity:1;-inkscape-stroke:none;color-rendering:auto;image-rendering:auto;shape-rendering:auto;text-rendering:auto;enable-background:accumulate;stop-color:#000000;stop-opacity:1"
     d="m 67.4733,80.841008 c -0.899599,-4.207871 -4.343353,-6.623688 -7.608328,-0.912599 -17.19408,30.075861 9.158574,19.421944 7.433176,15.332138 -3.616834,-8.573179 -3.563563,-5.695104 -3.563563,-5.695104 l 0.312759,-2.441224 z"
     id="path49" />
</svg>
